<?xml version="1.0" encoding="utf-8"?>
<!-- Generator: Adobe Illustrator 16.0.0, SVG Export Plug-In . SVG Version: 6.00 Build 0)  -->
<!DOCTYPE svg PUBLIC "-//W3C//DTD SVG 1.1//EN" "http://www.w3.org/Graphics/SVG/1.1/DTD/svg11.dtd">
<svg version="1.1" id="Layer_1" xmlns="http://www.w3.org/2000/svg" xmlns:xlink="http://www.w3.org/1999/xlink" x="0px" y="0px"
	 width="512px" height="512px" viewBox="0 0 512 512" enable-background="new 0 0 512 512" xml:space="preserve">
<g id="_x23_000000ff">
	<path fill="#406D94" d="M231.48,1.67c16.14-1.4,32.36-0.21,48.51,0.33c12.59,0.21,24.9,3.05,37.1,5.89
		c39.46,9.89,76.58,29.06,107.391,55.62c3.21,3.18,6.6,6.17,9.989,9.17c43.181,42.22,71.28,99.96,76.42,160.28
		c0.261,12.67,0.03,25.36,0.11,38.03c0.31,10.59-1.58,21.07-3.32,31.47c-7.529,41.59-26.029,80.99-52.51,113.87
		c-5.27,7.24-11.91,13.3-17.74,20.06c-6.96,6.07-13.27,12.891-20.76,18.341c-17.79,14.42-37.689,26.13-58.6,35.42
		c-44.09,19.189-93.68,25.359-141.16,17.8c-61.19-9.54-118.39-42.41-157.52-90.37c-13.23-16.061-24.08-33.95-33.23-52.6
		c-11.38-23.591-18.6-49.03-22.6-74.86c-1.54-14.649-1.52-29.42-1.4-44.13c0.43-10.67,0.44-21.45,2.72-31.93
		c5.04-28.18,14.15-55.82,28.4-80.72C56.2,90.83,91.74,55.2,134.29,32.33C164.12,15.55,197.5,5.38,231.48,1.67 M174.93,78.82
		c-38.03,17.37-70.12,47.42-89.95,84.23c-11.89,21.63-19.07,45.63-22.27,70.06c3.54-0.5,6.68-2.44,10.23-2.91
		c6.28-1,13.03,0.07,18.49,3.42c6.23,4.62,11.08,11.58,12.17,19.35c1.3,9.69-4.11,19.15-11.66,24.87c-5.5,3.87-12.56,4.6-19.08,3.84
		c-3.57-0.51-6.73-2.369-10.19-3.25c1.6,10.471,3.21,21.011,6.37,31.15c8.06,28.89,23.27,55.67,43.44,77.82
		c31.38,34.369,75.29,57.42,121.66,62.359c-2.24-6.34-4.7-13.05-2.9-19.85c1.14-8.47,7.67-15.03,15.15-18.521
		c5.08-2.689,11.12-2.59,16.639-1.64c8.75,2.92,17.23,9.55,19.091,19.04c1.89,7.14,0.01,14.45-2.83,21.04
		c54.569-5.6,105.569-36.63,136.989-81.41c18.621-26.51,31.101-57.7,34.331-89.99c-7.16,3.291-15.391,4.82-23.03,2.271
		c-6.67-1.91-11.58-7.39-14.801-13.29c-2.489-4.98-4.109-10.86-2.43-16.35c2.42-9.81,10.021-19.31,20.53-20.7
		c6.78-1.62,13.58,0.47,19.8,3.1c-5.37-49.9-31.5-97.06-70.4-128.7C357.32,85.94,330.04,72.42,301.12,65.71
		c-7.29-1.31-14.47-3.41-21.91-3.56c4.55,8.91,5.229,20.3-0.46,28.86c-5.311,6.93-13.74,12.26-22.71,11.75
		c-6.74,0.09-12.97-3.54-17.88-7.9c-5.74-5.12-7.97-13.16-7.41-20.65c0.38-4.39,2.21-8.46,3.83-12.5
		C214.05,64.65,193.73,69.94,174.93,78.82z"/>
	<path fill="#406D94" d="M358.84,152.1c0.96-0.49,1.99-0.76,3.09-0.8c-24.359,45.56-48.459,91.27-72.83,136.83
		c-45.54,24.43-91.27,48.5-136.85,72.851c0.13-0.631,0.39-1.881,0.53-2.511c24.01-44.92,47.71-89.999,71.8-134.88
		C269.3,199.69,314.08,175.92,358.84,152.1 M253.16,231.18c-4.56,1.29-9.14,3.08-12.72,6.27c-4.84,4.14-7.62,10.3-8.46,16.53
		c-1.51,14.581,12.59,28.5,27.17,26.69c6.3-0.949,12.369-4.04,16.52-8.93c6.03-6.79,7.67-17.11,3.971-25.4
		c-2.361-5.77-7-10.5-12.74-12.92C262.6,231.68,257.82,229.87,253.16,231.18z"/>
</g>
</svg>
