<?xml version="1.0" encoding="UTF-8" ?>
<!DOCTYPE svg PUBLIC "-//W3C//DTD SVG 1.1//EN" "http://www.w3.org/Graphics/SVG/1.1/DTD/svg11.dtd">
<svg width="128pt" height="128pt" viewBox="0 0 128 128" version="1.1" xmlns="http://www.w3.org/2000/svg">
<g id="#406d94ff">
<path fill="#406d94" opacity="1.00" d=" M 29.14 16.26 C 34.31 7.08 44.79 2.43 54.87 1.21 C 65.26 0.12 76.26 0.37 85.87 4.91 C 92.74 8.01 98.34 13.86 100.98 20.94 C 103.27 26.75 103.21 33.11 103.28 39.26 C 91.77 44.08 79.57 47.61 67.08 48.45 C 52.60 49.01 38.46 44.75 25.03 39.75 C 24.69 31.76 24.87 23.31 29.14 16.26 Z" />
<path fill="#406d94" opacity="1.00" d=" M 2.06 65.98 C -2.08 57.90 3.38 47.22 12.00 45.11 C 15.68 44.54 19.23 46.06 22.63 47.26 C 29.86 50.00 37.26 52.41 44.94 53.51 C 61.88 55.98 79.55 55.38 95.83 49.72 C 102.11 47.83 108.25 44.46 115.00 44.96 C 123.74 46.38 130.14 56.87 126.09 65.13 C 122.30 72.99 113.34 76.12 105.42 78.03 C 104.97 72.52 99.95 69.17 95.15 67.58 C 82.90 63.42 69.75 63.67 56.97 63.77 C 47.74 64.28 38.20 64.74 29.60 68.49 C 25.53 70.18 21.98 73.75 21.76 78.37 C 14.17 76.57 5.76 73.41 2.06 65.98 Z" />
<path fill="#406d94" opacity="1.00" d=" M 58.52 75.32 C 61.97 74.40 65.97 73.62 69.14 75.83 C 74.27 78.79 75.07 86.78 70.67 90.73 C 66.96 94.49 60.14 94.21 56.77 90.14 C 53.56 86.67 53.89 81.17 56.66 77.55 C 55.67 79.99 55.97 83.15 58.65 84.35 C 62.11 86.25 66.31 81.85 64.39 78.45 C 63.43 76.10 60.57 76.05 58.52 75.32 Z" />
<path fill="#406d94" opacity="1.00" d=" M 34.29 94.27 C 37.23 92.94 40.37 94.59 42.85 96.16 C 48.54 99.82 54.08 104.36 61.02 105.23 C 69.63 106.71 77.54 102.01 84.37 97.39 C 87.44 95.48 91.39 92.73 95.02 94.87 C 98.52 96.71 98.62 101.25 97.39 104.53 C 94.83 111.52 89.47 117.19 83.40 121.34 C 77.16 125.65 69.58 128.35 61.93 127.71 C 52.13 126.88 43.10 121.63 36.51 114.49 C 33.23 110.68 30.08 106.17 29.97 100.95 C 29.78 98.08 31.66 95.35 34.29 94.27 M 38.50 103.12 C 43.39 112.04 52.74 118.65 62.94 119.67 C 73.42 119.93 82.97 113.10 88.46 104.54 C 81.19 109.40 73.01 113.88 63.98 113.54 C 54.36 113.83 46.07 108.36 38.50 103.12 Z" />
</g>
</svg>
