<?xml version="1.0" encoding="utf-8"?>
<!-- Generator: Adobe Illustrator 16.0.0, SVG Export Plug-In . SVG Version: 6.00 Build 0)  -->
<!DOCTYPE svg PUBLIC "-//W3C//DTD SVG 1.1//EN" "http://www.w3.org/Graphics/SVG/1.1/DTD/svg11.dtd">
<svg version="1.1" id="Layer_1" xmlns="http://www.w3.org/2000/svg" xmlns:xlink="http://www.w3.org/1999/xlink" x="0px" y="0px"
	 width="512px" height="512px" viewBox="0 0 512 512" enable-background="new 0 0 512 512" xml:space="preserve">
<g id="_x23_000000ff">
	<path fill="#406D94" d="M61.04,70.73c26.98-0.81,53.97-0.44,80.96-0.74c95.34,0.01,190.67,0.28,286.01,0.26
		c16.29,0.1,32.59-0.2,48.87,0.14c3.91,1.69,7.521,4.26,10.39,7.43c2.94,3.25,3.62,7.69,5.051,11.67
		c7.699,1.52,15.04,6.47,18.51,13.63c0.41,10.93,0.04,21.9,0.17,32.84c-0.15,6.53,0.45,13.15-0.74,19.6
		c-2.3,6.98-9.06,11.67-16.08,13.06c-2.81,0.41-2.76,3.79-3.62,5.86c-1.479,5.53-5.89,9.72-10.779,12.38
		c-2.32,1.5-5.181,0.92-7.78,1.04c-10.29,0.11-20.6-0.45-30.85,0.59c-35.211,0.03-70.42,0.38-105.621,0.11
		c-0.469,1.06-0.719,2.17-0.77,3.33c-0.09,12.7,0.28,25.42-0.38,38.11c-1.12,17.5-8.729,34.12-19.67,47.64
		c-11.351,13.76-27.33,23.78-44.851,27.32c-8.209,1.2-16.549,0.35-24.79,1.25c-20.16,0.21-40.32,0.3-60.49,0.36
		c-2.99,31.229-6.57,62.46-12.6,93.27c-2.96,13.76-7.25,28.32-17.99,38.101c-2.92,2.26-6,5.289-9.97,5.039
		c-35.69-0.09-71.39,0.101-107.07-0.1c-10.48-1.76-19.01-9.49-24.57-18.21c-9.34-15.44-11.83-34.07-11.13-51.83
		c1.77-30.1,11.35-59.08,22.67-86.81c5.34-13.26,11.59-26.141,16.65-39.51c3.62-9.4,4.37-19.58,4.78-29.55
		c-0.05-8.22-1.18-17.87-8.49-22.98c-7.48-5.83-17.49-4.22-26.04-6.96c-5.5-1.64-8.27-7.65-7.97-13.05
		c0.53-8.13,3.01-15.96,5.3-23.72c4.06-14.38,9.72-28.26,16.29-41.66C30.52,97.24,37.29,85.86,47,77.15
		C50.91,73.72,55.59,70.48,61.04,70.73 M224.36,194.87c-0.7,11.5,7.23,21.7,17.02,26.85c4.18,2.49,9.45,4.66,11.15,9.65
		c1.19,8.06-7.04,14.42-14.55,14.21c-15.17,0.1-30.34-5.83-41.4-16.22c-1.18-1.22-2.64-2.05-4.32-2.3
		c-1.56,4.47-1.9,9.22-2.48,13.89c-0.72,8.53-1.73,17.05-1.53,25.63c20.91-0.09,41.83,0,62.74-0.04
		c6.1-0.09,12.46,0.239,18.189-2.22c8.87-3.93,15.48-11.55,20.551-19.6c1.92-4.07,5.16-7.94,4.93-12.67
		c0.04-14.45,0.34-28.91,0.35-43.34c-11.35,0.04-22.689-0.01-34.029,0.02C248.66,189.72,235.62,188.79,224.36,194.87z"/>
</g>
</svg>
