<?xml version="1.0" encoding="utf-8"?>
<!-- Generator: Adobe Illustrator 16.0.0, SVG Export Plug-In . SVG Version: 6.00 Build 0)  -->
<!DOCTYPE svg PUBLIC "-//W3C//DTD SVG 1.1//EN" "http://www.w3.org/Graphics/SVG/1.1/DTD/svg11.dtd">
<svg version="1.1" id="Layer_1" xmlns="http://www.w3.org/2000/svg" xmlns:xlink="http://www.w3.org/1999/xlink" x="0px" y="0px"
	 width="512px" height="512px" viewBox="0 0 512 512" enable-background="new 0 0 512 512" xml:space="preserve">
<g id="_x23_000000ff">
	<path fill="#406D94" d="M263.37,8.51c29.71-8.67,61.5-9.54,91.771-3.29c31.189,6.061,60.619,20.29,85.02,40.58
		c32.359,26.6,55.88,63.89,65.45,104.71c10.569,43.77,5.52,91.2-14.46,131.6C465.8,334,416.34,373.41,359.971,386.15
		c-13.421,3.239-27.201,4.529-40.941,5.22c-32.909,0.18-65.969-7.521-94.939-23.3c-9.46-5.04-18.47-10.87-27.21-17.061
		c-1.87-1.529-3.83,0.641-5.28,1.71c-4.63,4.24-9.21,8.59-13.41,13.261c0.04,2.479,1.19,4.75,1.82,7.119
		c2.16,7.181,1.36,14.851-0.15,22.08c-2.22,7.761-9.19,12.66-14.08,18.69c-23.61,24.36-47.64,48.33-71.69,72.26
		c-6.73,6.58-13.36,13.3-20.79,19.11c-3.85,2.93-8.25,5.62-13.24,5.68c-6.46,0.09-13.21,0.7-19.36-1.71
		c-6.57-2.5-11.67-7.54-16.73-12.24c-6.47-6.5-13.3-12.79-18.49-20.41C2.37,472,1.2,466.43,1.1,460.98
		c-0.17-5.82-0.48-12.141,2.61-17.341c2.67-4.479,6.08-8.47,9.64-12.26c12.04-13.26,25.04-25.61,37.64-38.33
		c13.9-13.8,27.66-27.74,41.9-41.2c5.99-5.659,11.67-11.699,18.26-16.699c3.38-2.561,7.67-3.42,11.8-3.891
		c6.72-1.13,13.68-0.12,20.08,2.101c1.49,0.46,3.51,0.96,4.61-0.54c4.33-4.73,9.1-9.051,13.34-13.87c1.49-1.25,0.69-3.34-0.35-4.59
		c-18.99-25.591-32.08-55.671-36.97-87.21c-2.95-16.52-2.74-33.39-1.82-50.09c2.41-20.93,7.42-41.67,16.34-60.82
		C161.37,64.31,208.3,23.28,263.37,8.51 M306.46,37.59c-34.55,2.04-68.45,15.53-94.48,38.43c-10.38,8.98-19.54,19.39-27.29,30.71
		c-25.21,36.3-33.36,83.5-23.1,126.35c9.62,42.49,38.28,79.87,76.04,101.33c20.21,11.62,43.13,18.229,66.32,20.04
		c11.021,0.28,22.12,0.74,33.069-0.9c22.811-2.93,45.021-10.83,64.42-23.21c30.94-19.83,55.041-50.54,65.931-85.72
		c7.67-23.65,9.08-49.15,5.38-73.67c-6.98-48.11-38.39-91.48-80.99-114.52C365.88,42.13,335.9,35.94,306.46,37.59z"/>
	<path fill="#406D94" d="M285.859,119.63c10.591-1.85,21.361-3.47,32.131-2.82c6.98,0.92,14.05,0.38,21,1.55
		c9.83,0.97,19.23,4.13,28.77,6.45c-0.49,0.1-0.97,0.2-1.449,0.31c10.66,2.79,20.489,8.14,29.89,13.79
		c12.31,7.22,21.909,17.96,31.729,28.11c9.58,9.99,16.561,22.06,22.681,34.38c2.14,4.58,4.67,9.35,4.22,14.57
		c-0.33,6.26-2.86,13.06-8.54,16.33c-6.38,4.18-15.22,4.43-21.55,0.02c-4.98-3.33-7.561-8.95-10.04-14.18
		c-0.37-1.21-1.421-1.8-2.511-2.24c-2.969,17-11.369,32.74-22.84,45.53c-12.66,13.961-29.01,25.01-47.43,29.62
		c-21.42,5.62-44.98,4.82-65.189-4.7c-17.121-7.99-32.71-20.18-42.84-36.3c-6.7-11.14-12.23-23.17-14.5-36.06
		c-2.8,5.99-5.54,12.33-10.44,16.94c-5.31,4.95-13.57,5.73-20.11,2.94c-7.05-2.81-11.88-10.3-11.59-17.87
		c-0.11-5.15,1.94-9.99,3.99-14.6c7.18-15.28,17.33-29.03,28.94-41.23C230.36,139.2,257.25,124.91,285.859,119.63 M241.01,184.97
		c-2.9,2.79-6.65,6.02-5.84,10.53c1.59,13.96,4.31,28.06,10.6,40.74c8.07,17.39,23.41,31.16,41.6,37.23
		c6.84,2.84,14.239,4.139,21.649,4.079c10.971-0.09,22.23,0.83,32.86-2.54c17.05-4.57,32.54-15.38,41.771-30.54
		c9.47-15.86,13.35-34.46,14.16-52.74c-11.69-12.15-25.561-22.53-41.471-28.38c1.939,4.69,5.301,8.63,7.11,13.4
		c2.86,6.33,3.53,13.36,3.271,20.23c0.309,8.81-1.74,17.85-6.671,25.23c-7.26,11.07-18.26,19.98-31.17,23.42
		c-12.53,3.54-26.351,1.5-37.59-4.96c-16.069-9.08-27.05-27.05-26.56-45.66c0.279-11.6,5.72-22.19,11.42-32
		C263.279,168.24,251.45,175.83,241.01,184.97z"/>
</g>
</svg>
