<?xml version="1.0" encoding="utf-8"?>
<!-- Generator: Adobe Illustrator 16.0.0, SVG Export Plug-In . SVG Version: 6.00 Build 0)  -->
<!DOCTYPE svg PUBLIC "-//W3C//DTD SVG 1.1//EN" "http://www.w3.org/Graphics/SVG/1.1/DTD/svg11.dtd">
<svg version="1.1" id="Layer_1" xmlns="http://www.w3.org/2000/svg" xmlns:xlink="http://www.w3.org/1999/xlink" x="0px" y="0px"
	 width="512px" height="512px" viewBox="0 0 512 512" enable-background="new 0 0 512 512" xml:space="preserve">
<g id="_x23_000000ff">
	<path fill="#406D94" d="M88.13,33.71c37.21-4.55,75.96,15.68,93.54,48.77c5.25,10.15,9.41,21.11,10.32,32.58
		c0.58,6.64,0.27,13.31,0.36,19.96c0.22,10.98-3.7,21.47-7.93,31.41c-6.41,14.57-17.05,26.89-29.36,36.81
		c-1.03,0.7-1.74,1.73-2.31,2.82c34.41,0.34,68.84,0.01,103.26,0.16c1.78,0.02,3.561-0.1,5.34-0.3c-3.029-3.43-7.05-5.8-10.27-9.05
		c-7.89-7.91-15.16-16.58-20.3-26.57c-14.83-28.77-13.44-65.3,3.84-92.73c9.98-15.78,24.67-28.58,41.75-36.17
		c18.21-8.18,39.09-10.54,58.569-5.98c34.061,7.45,63.59,35.12,70.86,69.53c0.15-0.61,0.3-1.22,0.46-1.83
		c0.26,5.01,1.811,9.86,2.18,14.87c0.551,11.12,0.701,22.45-2.469,33.24c-4.851,20.09-17.511,37.52-33.271,50.57
		c-1.95,1.67-4.521,2.75-5.81,5.08c18,3.54,33.529,16.52,41.08,33.12c5.02,10.89,4.949,23.21,4.439,34.95
		c0.26-4.341,0.54-8.681,1.16-12.99c-0.66,7.24-0.021,14.49-0.131,21.74c6.86,0.31,13.771,0.56,20.61-0.04
		c7.811-0.67,13.9-6.131,19.5-11.1c9.26-8.07,17.601-17.34,28.09-23.891c8.79-5.55,19.57-2.86,29.351-3.5
		c0.029,65.47,0,130.95,0.01,196.42c-7.64-0.439-15.35,0.061-22.91-1.26c-4.58-0.72-8.57-3.271-12.16-6.04
		c-10.189-8.19-18.92-18.03-29.25-26.04c-4.449-3.47-9.949-5.42-15.569-5.67c-5.851-0.16-11.7-0.05-17.54-0.03
		c-0.19,10.15-0.51,20.311-1.84,30.38c-1.86,17.96-14.74,33.101-30.15,41.551c-11.07,6.34-24.35,4.68-36.58,5.479
		c-84.33,0.09-168.67,0.01-253,0.04c-15.7-0.05-31.46,0.34-47.1-1.26c-4.71-0.38-9.25-1.91-13.29-4.36
		c-16.05-8.29-27.77-24.55-30.6-42.36C1.02,372.66,0.95,313.28,1.04,253.91c4.11-22.9,22.71-42.98,45.91-47.08
		c-2.54-2.78-5.81-4.72-8.64-7.16C22.3,186.63,11.76,167.8,6.56,148.01c-1.37-5.56-1.34-11.32-1.4-17
		C5.25,120.18,5,109.05,8.68,98.7c6.88-19.08,18.94-36.67,35.82-48.2C57.31,41.31,72.55,35.81,88.13,33.71z"/>
</g>
</svg>
