<?xml version="1.0" encoding="utf-8"?>
<!-- Generator: Adobe Illustrator 16.0.0, SVG Export Plug-In . SVG Version: 6.00 Build 0)  -->
<!DOCTYPE svg PUBLIC "-//W3C//DTD SVG 1.1//EN" "http://www.w3.org/Graphics/SVG/1.1/DTD/svg11.dtd">
<svg version="1.1" id="Layer_1" xmlns="http://www.w3.org/2000/svg" xmlns:xlink="http://www.w3.org/1999/xlink" x="0px" y="0px"
	 width="512px" height="512px" viewBox="0 0 512 512" enable-background="new 0 0 512 512" xml:space="preserve">
<g id="_x23_000000ff">
	<path fill="#406D94" d="M219.57,1.81c40.17-1.5,80.52-0.93,120.45,3.91C369.4,9.69,398.74,15.98,425.99,27.94
		c13.43,6.2,26.779,13.26,37.56,23.56c6.55,6.15,11.811,13.7,15.12,22.06c1.25,3.31,1.22,6.93,1.32,10.42
		c0.279,37.58-1.721,75.17-6.17,112.48c-7.24,60.25-20.34,120.56-46.87,175.47c-13.64,28.19-30.81,54.87-52.29,77.74
		c-20.141,21.4-44.35,39.33-71.689,50.39C284.76,507.49,265,512.9,245.19,510.44c-19.28-2.591-37.74-9.62-54.87-18.66
		c-31.21-16.641-56.99-42.05-77.32-70.73C90.95,389.7,75.04,354.38,63.36,317.98c-17.51-54.34-25.31-111.3-29.34-168.081
		c-1.65-23.57-2.55-47.23-1.49-70.85c0.39-11.69,8.94-20.82,16.87-28.51C66.24,34.87,87.96,25.8,109.57,18.8
		C145.23,8.07,182.47,3.54,219.57,1.81 M214.74,147.69c-11.93,2.11-23.95,3.78-35.8,6.34c-20.01,4.08-39.57,10.33-58.14,18.85
		c-9.46,4.42-19.1,8.64-27.87,14.38c0.93,2.28,3.14,3.55,4.99,5c7.91,5.83,16.04,11.41,24.62,16.24
		c12.48,6.87,25.95,12.94,40.37,13.82c12.99,0.11,24.9-6.68,34.43-15c15.14-13.51,24.73-32.02,31.32-50.95
		c1.09-3.44,2.68-6.84,2.68-10.52C225.75,145.72,220.24,146.88,214.74,147.69 M281.561,145.81c0,0.87,0.039,1.75,0.129,2.62
		c4.66,15.35,11.131,30.3,20.42,43.44c8.781,12.34,20.311,23.61,35.011,28.37c4.44,1.63,9.21,1.39,13.851,1.82
		c5.379-0.49,10.739-1.32,15.889-3.01c17.841-5.85,33.871-16.06,48.861-27.19c1.569-1.45,4.079-2.55,4.119-5
		c-13.25-7.88-27.439-14.02-41.65-19.92c-25.34-10.18-52.399-14.91-79.26-19.08C293.16,147.06,287.42,145.71,281.561,145.81
		 M201.21,325.25c-24.68,15.38-42.78,39.15-56.78,64.24c-2.62,4.93-5.8,9.7-7.23,15.149c6.05-2.84,11.65-6.51,17.56-9.609
		c12.39-7.16,25.43-13.11,38.71-18.4c18.46-6.729,37.72-12.51,57.55-12.439c11.91,0.64,23.669,3.149,35.121,6.409
		c20.219,6.11,39.75,14.54,58.049,25.101c5.351,2.859,10.351,6.359,15.92,8.8c-1.619-5.46-4.639-10.35-7.289-15.34
		c-8.08-14.641-17.65-28.54-29.12-40.74c-14.19-15.4-31.71-28.37-51.97-34.41c-8-2.54-16.451-2.439-24.721-3.27
		C230.71,310.78,215,316.9,201.21,325.25z"/>
</g>
</svg>
