<?xml version="1.0" encoding="utf-8"?>
<!-- Generator: Adobe Illustrator 16.0.0, SVG Export Plug-In . SVG Version: 6.00 Build 0)  -->
<!DOCTYPE svg PUBLIC "-//W3C//DTD SVG 1.1//EN" "http://www.w3.org/Graphics/SVG/1.1/DTD/svg11.dtd">
<svg version="1.1" id="Layer_1" xmlns="http://www.w3.org/2000/svg" xmlns:xlink="http://www.w3.org/1999/xlink" x="0px" y="0px"
	 width="512px" height="512px" viewBox="0 0 512 512" enable-background="new 0 0 512 512" xml:space="preserve">
<g id="_x23_000000ff">
	<path fill="#406D94" d="M358.82,3.45c0.34,0.01,1.029,0.01,1.38,0.02c6.43,21.35,14.19,42.3,20.579,63.67
		c0.131,0.16,0.391,0.47,0.531,0.62c1.699,6.06,3.819,11.99,5.43,18.08c2.06-0.47,4.07-1.15,6-2.03
		c24.75-10.7,49.189-22.09,74.08-32.48c-5.58,13.26-12.551,25.9-18.82,38.83c-5.98,11.97-12.03,23.9-18.06,35.84
		c-0.79,1.28-0.79,2.75-0.521,4.18c3.66,0.87,7.08,2.47,10.6,3.77c23.41,8.95,46.82,17.92,70.211,26.95
		c-1.44,1.51-3.591,1.71-5.45,2.38c-20.471,6.73-41,13.3-61.36,20.35c-5.03,1.83-10.17,3.43-14.99,5.76
		c-0.52,1.23-0.09,2.58,0.37,3.77c10.74,25.11,22.16,49.93,32.83,75.07c-26.08-10.82-50.489-25.291-76.39-36.55
		c-0.76-0.23-1.54-0.28-2.34-0.14c-9.7,25.681-19.711,51.31-29.48,76.99c-0.109,1.25-1.74,1.79-2.34,0.569
		c-7.93-20.939-14.971-42.209-22.17-63.41c-0.689-2.24-1.6-4.4-2.58-6.52c-6.971,4.99-12.721,11.42-19.01,17.19
		c-83.03,81.59-164.4,164.85-247.87,245.98c-3.62,3.12-6.62,7.57-11.64,8.46c-4.27,0.46-8.59,0.101-12.88,0.22
		c-5.54,0.301-10.12-3.449-13.95-6.989c-5.01-4.98-10.29-9.73-14.76-15.21c-5.58-6.71-6.13-16.38-3.81-24.49
		c1.18-4.6,5.36-7.38,8.3-10.82c87.72-89.85,177.37-177.8,265.34-267.4c0.61-0.8,2.95-2.43,1-3.08c-24.93-9.89-50.04-19.28-75-29.07
		c8.47-4.04,17.57-6.57,26.39-9.75c4.26-1.34,8.4-3.13,12.82-3.94c0.09-0.16,0.27-0.48,0.36-0.65c14.14-3.98,27.83-9.47,41.94-13.54
		c0.049-1.26-0.181-2.47-0.69-3.62c-9.07-21.51-18.8-42.75-28.09-64.17c-1.65-4.06-3.65-8-4.87-12.23
		c24.5,11.42,48.33,24.24,72.89,35.54c1.681,0.82,3.45,1.43,5.229,2.01C338.221,58.27,347.8,32.69,357.63,7.2
		C358.07,5.97,358.45,4.71,358.82,3.45 M260.641,230.6c-13.861,14.06-28.111,27.75-41.741,42.009
		c7.26,7.16,14.48,14.371,21.81,21.461c35.24-35.541,71.101-70.48,105.819-106.541c2.811-2.97,5.691-5.94,7.9-9.4
		c0.45-2.32-1.439-4-2.699-5.67c-4.381-5.1-9.11-9.96-14.561-13.93c-0.83,0.01-2.47,0.03-3.3,0.04
		C308.84,181.93,284.891,206.43,260.641,230.6z"/>
	<path fill="#406D94" d="M314.939,374.01c4.16-8.359,6.4-17.59,11.11-25.689c4.021,8.09,6.761,16.729,10.64,24.88
		c0.83,1.84,2.961,2.43,4.621,3.29c6.85,2.87,13.739,5.62,20.6,8.439c-0.09,0.521-0.27,1.561-0.37,2.09
		c-7.021,3.211-14.3,5.82-21.36,8.931c-1.39,0.649-2.979,1.31-3.57,2.85c-3.77,7.57-6.01,15.79-9.689,23.38
		c-0.46,0.03-1.38,0.08-1.84,0.101c-3.77-7.36-6.15-15.351-9.561-22.891c-0.529-1.029-1-2.279-2.189-2.699
		c-8.359-3.96-17.33-6.5-25.59-10.66C296.33,381.13,306.57,379.3,314.939,374.01z"/>
	<path fill="#406D94" d="M444.98,386c6.609,13.33,11.199,27.55,16.949,41.25c0.38,1.18,1.7,1.43,2.7,1.92
		c11.95,4.75,23.97,9.36,35.82,14.37c1.31,0.63,2.899,1.04,3.66,2.43c-13.69,5.99-27.681,11.271-41.62,16.67
		c-6.141,14.011-10.641,28.75-17.55,42.42c-5.671-12.34-10.301-25.119-15.4-37.699c-0.94-1.91-1.17-4.75-3.61-5.33
		c-13.279-5.13-26.529-10.33-39.65-15.87c0.061-0.32,0.191-0.98,0.25-1.3c13.011-5.62,26.431-10.28,39.341-16.12
		c2.6-1.061,3.06-4.21,4.2-6.46C435.27,410.29,439.44,397.86,444.98,386z"/>
</g>
</svg>
