<?xml version="1.0" encoding="utf-8"?>
<!-- Generator: Adobe Illustrator 16.0.0, SVG Export Plug-In . SVG Version: 6.00 Build 0)  -->
<!DOCTYPE svg PUBLIC "-//W3C//DTD SVG 1.1//EN" "http://www.w3.org/Graphics/SVG/1.1/DTD/svg11.dtd">
<svg version="1.1" id="Layer_1" xmlns="http://www.w3.org/2000/svg" xmlns:xlink="http://www.w3.org/1999/xlink" x="0px" y="0px"
	 width="512px" height="512px" viewBox="0 0 512 512" enable-background="new 0 0 512 512" xml:space="preserve">
<g id="_x23_000000ff">
	<path fill="#406D94" d="M39.99,1c144,0,288,0,432.01,0c0.01,7.18,0,14.37-0.74,21.51c-0.49,5.04-2.76,9.94-6.6,13.28
		c-3.22,2.7-7.57,3.19-11.58,3.63c-6.82,0.45-13.64,0.89-20.47,1.07c-0.221,5.51-0.141,11.04-0.5,16.55
		c-0.7,5.15-0.261,10.99-3.9,15.17c-5.33,6.01-13.79,7.99-21.54,7.46c-0.98,16.86-1.84,33.83-5.561,50.36
		c-4.729,23.47-13.629,46.26-27.35,65.97c-8.99,12.1-19.869,22.67-31.18,32.58c-7.23,6.39-14.811,12.48-21.09,19.84
		c-3.37,3.84-3.29,9.54-0.84,13.83c4.279,7.82,12.01,12.75,18.399,18.67c16.22,13.84,31.761,29.07,42.41,47.74
		c9.761,16.91,16.021,35.68,19.851,54.78c3.51,16.079,4.469,32.56,5.35,48.949c6.63-0.42,13.55,0.91,18.899,5.03
		c2.79,2.08,4.851,5.12,5.511,8.561c1.25,8.47,1.359,17.06,1.529,25.609c8.49,0.66,17.08,0.32,25.48,1.83
		c7.43,1.12,12.25,8.4,13.08,15.44c0.88,7.34,0.83,14.75,0.84,22.14c-144.01,0-288.01,0-432.01,0c0.11-7.33,0.08-14.7,0.96-21.99
		c0.46-5.06,3.06-9.87,7-13.06c4.05-2.88,9.23-3.101,14.01-3.49c5.84-0.27,11.67-0.6,17.51-0.85c0.23-5.87,0.02-11.771,0.76-17.601
		c0.27-4.819,0.3-10.2,3.66-14.06c5.27-6.07,13.8-8.08,21.56-7.55c1.06-29.561,5.05-59.511,16.85-86.87
		c5.74-13.75,13.43-26.73,23.19-38.011c6.76-7.89,14.08-15.31,21.88-22.17c7.18-6.76,15.07-12.8,21.53-20.289
		c2.42-3.44,2.82-7.9,2.55-11.98c-0.05-3.84-3.22-6.43-5.66-8.96c-12.43-12.24-26.08-23.2-37.94-36.02
		c-18.87-21.63-31.1-48.61-36.61-76.68c-3.9-16.98-4.7-34.43-5.82-51.76c-7.56,0.53-15.74-1.33-21.1-7
		c-3.52-3.63-3.87-8.97-4.04-13.74c-0.77-6.12-0.58-12.29-0.82-18.45c-6.51-0.12-13-0.59-19.5-0.97c-4.15-0.4-8.63-0.8-12.09-3.37
		c-3.96-3.22-6.45-8.09-6.94-13.15C40.09,15.69,40.1,8.33,39.99,1 M137.59,79.65c-0.45,22.2,3.31,44.37,10.18,65.44
		c6.18,19.05,17.38,36.38,31.93,50.12c8.49,8.22,17.68,15.68,26.24,23.84c6.01,5.8,11.55,12.41,14.54,20.31
		c4.03,11.34,3.89,24.201-0.76,35.34c-4,9.36-11.59,16.38-18.77,23.31c-7.13,6.55-14.57,12.74-21.47,19.54
		c-23.37,21.83-35.91,53.2-39.71,84.5c-1.41,10.061-2.46,20.2-2.19,30.36c13.53-0.03,27.07,0.09,40.61-0.061
		c0.37-7.52,1.46-14.979,2.8-22.38c2.83-15.83,9.86-30.7,19.16-43.739c10.17-14.011,22.29-26.461,33.09-39.971
		c5.89-7.45,11.69-15.35,14.26-24.64c2.67-10.61,1.71-21.66,0.58-32.41c-1.73-14.14-6.95-27.69-14.29-39.85
		c-8.79-14.22-21.55-25.4-30.9-39.21c-2.68-3.75-3.96-8.22-4.68-12.72c38.84-0.03,77.69-0.01,116.53-0.01
		c-0.02,2.98-0.01,6.07-1.301,8.83c-3.289,7.84-8.699,14.54-14.319,20.82c-7.19,8.22-14.47,16.41-20.61,25.47
		c-7.48,11.17-11.6,24.239-13.85,37.399c-2.11,13.86-2.58,29.001,4.72,41.53c13.94,24.03,36.47,41.82,49.79,66.28
		c9.609,16.51,13.92,35.66,14.6,54.62c13.66,0.1,27.33,0.02,41,0.04c-0.6-17.36-1.949-34.851-6.539-51.68
		c-3.74-15.051-10.16-29.37-18.32-42.53c-12.78-19.61-32.561-32.84-48.939-49.11c-6.551-6.55-10.891-15.16-12.801-24.189
		c-2.68-12.791,0.65-26.65,8.76-36.891c3.551-4.77,8.33-8.38,12.57-12.49c10.84-9.45,21.75-18.91,31.279-29.7
		c12.721-14.11,21.611-31.44,26.391-49.78c4.71-18.39,7.75-37.37,7.23-56.39C295.471,79.65,216.53,79.65,137.59,79.65z"/>
</g>
</svg>
