<?xml version="1.0" encoding="utf-8"?>
<!-- Generator: Adobe Illustrator 16.0.0, SVG Export Plug-In . SVG Version: 6.00 Build 0)  -->
<!DOCTYPE svg PUBLIC "-//W3C//DTD SVG 1.1//EN" "http://www.w3.org/Graphics/SVG/1.1/DTD/svg11.dtd">
<svg version="1.1" id="Layer_1" xmlns="http://www.w3.org/2000/svg" xmlns:xlink="http://www.w3.org/1999/xlink" x="0px" y="0px"
	 width="512px" height="512px" viewBox="0 0 512 512" enable-background="new 0 0 512 512" xml:space="preserve">
<g id="_x23_000000ff">
	<path fill="#406D94" d="M495.02,8.24c3.15-2.271,5.591-5.39,8.881-7.49c-0.101,15.58,0.819,31.23-0.73,46.76
		c-3.13,21.35-9.03,42.19-15.97,62.59c-15.601,43.19-37.92,83.65-63.22,121.87c-10.53,16.47-23,31.74-31.99,49.17
		c-5.68,11.08-8.76,24.159-5.461,36.419c2.98,9.221,7.141,18.051,9.681,27.41c0.71,5.96,0.38,12.221-1.71,17.9
		c-3.26,7.62-9.68,15.09-18.49,15.649c-7.539,0.75-14.01-4.409-18.43-9.979c-4.4-5.83-3.77-13.56-3.91-20.45
		c-0.09-11.229,4.92-21.479,8.01-32.03c-2.84,1.61-4.67,4.4-6.88,6.7c-19.75,22.24-40.46,43.61-60.85,65.25
		c-15.101-13.85-28.841-29.18-44.04-42.939c-0.95-0.811-2.02-1.4-3.21-1.771c-0.17,3.25-1.43,6.34-1.36,9.61
		c-0.11-0.41-0.35-1.25-0.47-1.66c-0.96,5.09-3.18,9.82-5.13,14.59c-11.42,27.03-28.47,51.25-47.25,73.641
		c-15.39,18.609-35.28,32.899-56.11,44.84c-19.27,10.6-39.35,20.38-60.93,25.22c-6.72,1.64-13.69,1.71-20.56,1.32
		c-3.54-0.23-6.78-2.011-9.29-4.44c-8.99-8.36-17.75-16.97-26.05-26.02c-3.86-4.591-8.01-9.301-9.64-15.21
		c-1.1-5.66-1.84-12.261,2.37-16.891c14.22-18.04,31.25-33.59,46.99-50.27c50.91-51.351,102.22-102.32,153.33-153.47
		c64.7-64.67,129.44-129.28,194.13-193.96c1.83-1.66,3.35-3.91,5.75-4.78c7.859-0.67,15.75-1.7,23.38-3.81
		C457.96,35.68,477.24,22.43,495.02,8.24 M424.52,64.68c-1.729,0.18-3.13,1.28-4.369,2.4c-22.24,20.78-43.66,42.4-65.26,63.84
		c-48.121,47.89-96.24,95.79-144.23,143.811c-0.68,0.85-0.59,1.66,0.25,2.42c27.09,26.899,54.02,53.97,81.061,80.92
		c0.77,1.239,2.159,0.92,2.889-0.181c21.5-22.229,42.33-45.12,61.871-69.1c8.229-9.94,11.27-22.729,15.279-34.7
		c7.52-24.66,14.53-50.06,13.83-76.08c0.34-12.73-2.35-25.37-1.23-38.1c0.451-4.1,1.591-8.87,5.49-11.05
		c2.771-1.83,6.33-1.62,9.391-0.72c8.07,2.4,15.039,7.27,22.6,10.82c3.521,1.71,7.57,1.89,11.391,1.33
		c2.869-1.3,4.649-4.37,4.89-7.44c1.6-21.3-4.61-42-7.8-62.85c-0.261-1.75-0.19-3.62-1.101-5.19
		C427.92,64.12,426.13,64.52,424.52,64.68z"/>
	<path fill="#406D94" d="M339.01,401.06c1.44-2.829,2.68-5.85,4.971-8.109c2.649,3.3,4.129,7.3,6.01,11.06
		c5.039,11.07,10.39,22.58,10.38,35c-0.39,4.33-1.091,8.91-3.78,12.48c-5.16,7.09-16.9,8.33-23.02,1.81
		c-7.2-8.01-7.12-20.14-3.78-29.84C332.43,415.83,335.561,408.36,339.01,401.06z"/>
</g>
</svg>
