<?xml version="1.0" encoding="utf-8"?>
<!-- Generator: Adobe Illustrator 16.0.0, SVG Export Plug-In . SVG Version: 6.00 Build 0)  -->
<!DOCTYPE svg PUBLIC "-//W3C//DTD SVG 1.1//EN" "http://www.w3.org/Graphics/SVG/1.1/DTD/svg11.dtd">
<svg version="1.1" id="Layer_1" xmlns="http://www.w3.org/2000/svg" xmlns:xlink="http://www.w3.org/1999/xlink" x="0px" y="0px"
	 width="512px" height="512px" viewBox="0 0 512 512" enable-background="new 0 0 512 512" xml:space="preserve">
<g id="_x23_000000ff">
	<path fill="#406D94" d="M241.48,5.64c9.78-7.24,25.47-6.11,33.049,3.86c0.381,9.86,0.451,19.73,1.16,29.57
		c0.48,8.01,4.961,15.14,10.36,20.81c6.58,6.43,14.521,11.23,22.57,15.57c18.14,9.76,37.44,17.07,56.06,25.82
		c14.99,7.13,30,14.72,42.811,25.43c9.97,8.38,17.58,19.71,20.77,32.39c1.59,8.88,1.03,17.95,1.36,26.93
		c0.13,29.37,0.51,58.74,0.33,88.1c-2.08,7.11-7.17,14.22-14.71,16.149c-8.141,2.69-17.48-1.6-21.92-8.68
		c-3.23-5.15-2.521-11.54-4.7-17.07c-1.99-5.529-6.41-9.72-10.96-13.22c-7.73-5.75-16.54-9.75-25.28-13.67
		c-22.101-9.92-45.11-17.9-66.33-29.69c-3.37-1.67-6.399-4.48-10.29-4.77c-1.23,74.93-0.93,149.87-1.14,224.8
		c0.601,5.65-2.24,10.721-4.03,15.88c-6.35,17.17-17.43,32.511-31.72,43.96c-15.73,12.431-34.83,20.841-54.82,23.08
		c-8.69,0.17-17.4,0.221-26.1-0.029c-21.32-2.341-42.34-10.92-57.91-25.91c-8.71-8.63-15.51-19.641-17.55-31.851
		c-1.76-20.13,2.04-41.21,13.3-58.26c12.05-18.72,31.97-30.85,52.69-37.91c9.88-3.14,19.95-6.6,30.45-6.46
		c11.05,0,22.28-0.76,33.14,1.79c8.15,1.78,15.62,5.63,23.44,8.41c1.21-5.58,0.72-11.32,0.99-16.97c0.5-50.9,0.22-101.81,0.3-152.71
		c-0.01-59.35,0.01-118.69-0.02-178.04C236.5,9.76,239.42,7.62,241.48,5.64z"/>
</g>
</svg>
