<?xml version="1.0" encoding="utf-8"?>
<!-- Generator: Adobe Illustrator 16.0.0, SVG Export Plug-In . SVG Version: 6.00 Build 0)  -->
<!DOCTYPE svg PUBLIC "-//W3C//DTD SVG 1.1//EN" "http://www.w3.org/Graphics/SVG/1.1/DTD/svg11.dtd">
<svg version="1.1" id="Layer_1" xmlns="http://www.w3.org/2000/svg" xmlns:xlink="http://www.w3.org/1999/xlink" x="0px" y="0px"
	 width="512px" height="512px" viewBox="0 0 512 512" enable-background="new 0 0 512 512" xml:space="preserve">
<g id="_x23_000000ff">
	<path fill="#406D94" d="M78.05,74.01c12.55-4.08,25.64-7.1,38.92-6.9c9.46,0.05,19.06,0.21,28.25,2.68
		c23.89,6.92,45.42,20.63,63.36,37.68c3.07,2.92,6.28,5.7,9.49,8.47c4.06-2.83,7.44-6.47,11.08-9.79
		c16.39-15.36,35.65-28.07,57.129-35.01c11.761-4.14,24.441-4.2,36.761-3.91c17.09,0.39,33.88,5.18,49.26,12.5
		c24.729,12.21,44.681,34.01,54.271,59.9c5.109,13.36,7.46,27.61,8.41,41.83c0.819,5.5-0.32,10.99-0.391,16.49
		c-0.109,6.48-1.47,12.84-2.08,19.28c2.351,2.11,5.931,0.79,8.76,1.82c19.961,5.49,38.19,17.37,51.091,33.59
		c12.5,15.85,19.37,36.139,18.54,56.35c-0.69,25.189-12.301,49.26-29.48,67.38c-11.84,11.8-26.34,20.66-41.52,27.5
		c-30.11,13.27-62.621,19.99-92.74,33.22c-7.58,3.32-15.75,6.061-24.141,5.28c-12.76-0.67-24.539-8.25-31.17-19.04
		c-5.25-8.87-7.68-19.061-12.619-28.09c-11.561,9.72-22.19,20.49-32.98,31.04c-5.93,5.75-10.78,12.72-17.7,17.37
		c-4.26,3.05-9.72,2.39-14.64,2.31c-3.38-0.06-6.27-2.12-8.83-4.12c-7.17-6.109-12.76-13.78-19.56-20.27
		c-33.18-33.09-71.18-60.79-105.8-92.29c-9.46-8.891-19.28-17.471-27.85-27.261c-17.09-17.67-31-38.449-40.45-61.149
		c-8.68-20.74-11.46-43.64-9.84-65.96c1.51-17.03,6.31-33.81,14.46-48.86c6.31-12.34,15.87-22.69,26.17-31.82
		C52.52,84.98,65.1,78.68,78.05,74.01 M315.87,207.48c1.2,0.22,2.409,0.43,3.62,0.65c-17.881,0.86-34.301,11.86-43.61,26.89
		c-8.08,12.69-12.21,27.94-11.18,42.99c0.2,18.65,8.03,35.95,15.69,52.57c11.75,24.59,24.819,48.58,35.299,73.76
		c1.73,3.82,4.511,8.391,9.281,8.29c7.1-0.25,13.229-4.42,19.719-6.85c28.34-11,58.16-17.931,85.971-30.33
		c14.81-6.62,28.56-16.44,37.77-29.98c11.261-16.029,16.29-37.14,10.351-56.14c-3.55-11.98-11.82-21.95-21.38-29.71
		c-8.98-6.96-19.96-12.26-31.54-11.86c-15.7,1.73-27.71,13.061-41.04,20.391c-1.23,0.709-2.68,0.529-4.03,0.59
		c-0.21-1.26-0.41-2.51-0.601-3.76c-3.289-13.51-5.219-27.931-13.5-39.541c-7.6-10.95-21.14-15.59-33.85-17.17
		C327.23,207.24,321.52,207.98,315.87,207.48z"/>
</g>
</svg>
