<?xml version="1.0" encoding="utf-8"?>
<!-- Generator: Adobe Illustrator 16.0.0, SVG Export Plug-In . SVG Version: 6.00 Build 0)  -->
<!DOCTYPE svg PUBLIC "-//W3C//DTD SVG 1.1//EN" "http://www.w3.org/Graphics/SVG/1.1/DTD/svg11.dtd">
<svg version="1.1" id="Layer_1" xmlns="http://www.w3.org/2000/svg" xmlns:xlink="http://www.w3.org/1999/xlink" x="0px" y="0px"
	 width="512px" height="512px" viewBox="0 0 512 512" enable-background="new 0 0 512 512" xml:space="preserve">
<g id="_x23_000000ff">
	<path fill="#406D94" d="M100.26,19.27c17.27-12.19,38.57-19.04,59.77-18.14c7.95-0.04,15.92-0.06,23.86,0.6
		c14.01,1.36,27.63,5.18,41.04,9.31c8.57,2.91,17.18,5.8,25.41,9.59c4.23,1.77,8.311,3.93,12.689,5.3
		c3.291,1.13,6.711,0.04,9.951-0.71c50.879-13.07,107.049-0.52,148.829,30.93c31.41,23.47,54.311,57.86,64.29,95.76
		c7.7,30.02,9.061,62.25,0.301,92.2c-0.94,2.13,0.649,4.07,1.42,5.97c9.96,21.1,16.85,43.561,21.59,66.38
		c2.18,10.7,1.47,21.67,1.59,32.521c-0.11,8.88,0.52,17.93-1.63,26.64c-4.26,16.79-11.42,33.37-23.67,45.91
		c-11.65,12.5-27.391,20.56-43.76,24.93c-11.41,2.73-23.181,4-34.9,3.79c-12.45-0.24-24.75-2.4-37.069-4
		c-4.871,4.93-9.73,9.87-14.711,14.69c-0.199,7.97,0.94,16.18-1.789,23.869c-3.271,8.95-9.681,16.881-18.131,21.41
		c-10.18,5.681-22.91,6.36-33.76,2.2c-9.51-3.18-16.23-11.55-20.79-20.12c-3.64-6.479-3.19-14.14-2.99-21.31
		c0.16-9.34,6.011-17.4,12.421-23.69c6.59-6.92,16.34-10.149,25.76-10.08c3.47-0.05,6.949,0.2,10.42-0.09
		c-2.271-2.21-5.51-2.75-8.271-4.1c-39.69-17.13-76.05-41.33-108.99-69.19c-5.07-4.56-10.38-8.87-15.23-13.68
		c-13.71,13.21-26.89,26.979-40.55,40.25c-5.13,5.26-10.5,10.31-15.52,15.68c0.99,8.24,1.05,16.96-2.09,24.83
		c-7.02,19.24-30.95,30.69-50.1,22.65c-17.38-6.5-29.02-26.32-24.48-44.641c2.35-10.52,8.94-20.18,18.34-25.59
		c9.19-5.38,20.38-6.859,30.75-4.689c18.62-18.54,37.08-37.25,55.74-55.75c-1.11-2.69-3.65-4.341-5.41-6.561
		c-20.4-23.279-39.69-47.779-54.97-74.78c-8.27-14.42-16-29.18-22.58-44.46c-1.19-2.47-2.06-5.12-3.68-7.36
		c0.3,11.38-0.12,23.87-7.51,33.22c-6.95,8.2-16.57,15.78-27.85,15.58c-6.4,0.02-13.18,0.56-19.03-2.54
		c-9.16-4.56-17.98-11.69-21.24-21.73c-3.91-10.28-3.32-22.12,1.57-31.97c4.64-9.51,13.51-16.87,23.63-19.85
		c7.15-2.3,14.85-0.39,22.07-1.36c5.23-5.14,10.58-10.2,15.41-15.72c-2.63-13.26-3.98-26.8-3.91-40.33
		c0.19-16.49,2.7-33.35,10.18-48.22C78.79,39.52,88.42,27.88,100.26,19.27 M256.55,74.51c-10.11,8.87-19.36,19.89-22.12,33.4
		c-3.6,17.84,1.12,36.27,9.43,52.12c9.59,18.54,22.83,34.92,37,50.13c9.98,11.02,20.851,21.2,32.061,30.94
		c11.75,9.88,24.1,19.169,37.68,26.4c13.82,7.561,29.391,13.09,45.36,11.971c15.101-0.461,28.53-9.221,38.88-19.631
		c11.561-11.66,17.11-27.9,18.93-43.92c0.301,1.02,0.601,2.03,0.9,3.05c-1.02-4.26-0.06-8.65,0.11-12.95
		c1.09-8.06-0.07-16.16-0.98-24.17c-4.24-33.71-20.1-66.35-46.06-88.61c-19.03-16.97-42.94-28.08-67.881-33
		c-14.109-3.12-28.649-2.36-42.959-1.54C282.52,60.71,267.779,64.85,256.55,74.51z"/>
</g>
</svg>
