<?xml version="1.0" encoding="utf-8"?>
<!-- Generator: Adobe Illustrator 16.0.0, SVG Export Plug-In . SVG Version: 6.00 Build 0)  -->
<!DOCTYPE svg PUBLIC "-//W3C//DTD SVG 1.1//EN" "http://www.w3.org/Graphics/SVG/1.1/DTD/svg11.dtd">
<svg version="1.1" id="Layer_1" xmlns="http://www.w3.org/2000/svg" xmlns:xlink="http://www.w3.org/1999/xlink" x="0px" y="0px"
	 width="512px" height="512px" viewBox="0 0 512 512" enable-background="new 0 0 512 512" xml:space="preserve">
<g id="_x23_000000ff">
	<path fill="#406D94" d="M368.2,2.32c18.659-0.55,37.46-0.3,55.88,3.04c17.97,3.17,36,8.75,50.95,19.52
		c11.12,8.03,18.64,19.97,23.819,32.47c7.4,17.26,10.271,36.05,11.681,54.66c2.54,47.48-5.48,95.26-21.54,139.91
		c-13.971,38.5-33.58,74.99-58.32,107.65c-53.939,71.31-133.859,121.71-220.6,142.56c-17.79,4.11-35.8,7.72-54.06,8.851
		c-16.65,0.05-33.3-0.011-49.95,0.029c-5.04,0.101-10-0.96-14.97-1.59c-17.53-2.75-35.18-7.58-50.04-17.58
		c-12.93-8.47-22.37-21.49-28.27-35.63c-8.55-20.6-10.94-43.12-11.66-65.229c-0.19-16.53,0.74-33.07,2.62-49.49
		c5.39-43.51,19.59-85.58,38.82-124.85c12.09-23.71,26.33-46.34,42.83-67.23c4.37-5.35,8.85-10.61,13.21-15.96
		c8.82-9.14,17.05-18.9,26.78-27.13c8.35-8.36,17.79-15.49,26.86-23.03c9.34-6.65,18.38-13.75,28.25-19.62
		c17.62-11.46,36.38-21.01,55.55-29.59c25.46-10.54,51.7-19.5,78.8-24.75C332.41,5.69,350.221,2.61,368.2,2.32 M423.54,61.49
		c-15.931,15.77-31.91,31.51-47.101,48c-3.049,3.22-6.229,6.41-8.58,10.21c-0.659,3.86-0.299,7.82-0.189,11.71
		c0.15,0.07,0.439,0.19,0.59,0.25c-0.029,2.99,2.301,5.07,3.961,7.3c2.829,3.12,6.43,5.99,10.76,6.44
		c4.279,0.24,8.74,0.46,12.76-1.3c4.8-3.95,9.33-8.24,13.75-12.62c18.149-17.81,36-35.92,54.04-53.84c0.88-1.08-0.34-2.36-0.67-3.42
		c-3.33-6.9-7.351-13.82-13.87-18.16c-3.971-2.54-8.21-5.38-13.01-5.78C431.56,53.69,427.58,57.64,423.54,61.49 M265.84,131.46
		c-4.82,1.91-8.48,5.83-11.65,9.78c-4.52,5.56-5.66,14.06-1.56,20.16c5.22,8.22,12.62,14.69,19.21,21.76
		c4.95,4.97,9.9,9.94,14.92,14.85c-9.46,9.83-19.32,19.28-28.97,28.91l-0.61-0.02c-9.35-9.02-18.209-18.53-27.82-27.27
		c-4.56-3.79-9.25-8.28-15.36-9.16c-11.95-0.26-22.68,9.91-24.35,21.52c-0.82,8.35,5.44,14.93,10.74,20.54
		c8.23,9.06,17.63,17.06,25.66,26.26c-9.81,9.53-19.15,19.53-29.04,28.97c-8.87-9.06-17.86-18.01-27.11-26.689
		c-4.14-3.5-8.16-7.42-13.3-9.4c-5.86-1.95-12.16,0.51-16.96,3.92c-5.89,4.6-11.11,11.471-10.37,19.34
		c-0.3,6.37,4.82,10.93,8.43,15.541c9.14,9.749,18.79,19.02,28.12,28.6c-5.45,5.81-11.67,10.92-16.53,17.27
		c-4.12,4.851-4.74,11.74-2.86,17.66c2.82,12.37,19.79,17.77,29.65,10.25c6.59-4.97,11.92-11.36,17.88-17.03
		c8.08,7.83,15.89,15.94,23.99,23.761c4.89,4.619,9.78,9.579,16,12.39c3.27,0.62,6.65,0.49,9.93,0.05
		c9.57-3.05,17.63-12.18,17.88-22.439c0.301-6.54-4.39-11.66-8.35-16.301c-9.08-9.84-18.77-19.09-28.17-28.62
		c9.53-9.819,19.36-19.35,28.97-29.089c10.14,9.09,19.39,19.18,29.431,28.399c3.399,2.92,6.77,6.13,11.119,7.59
		c4.98,1.521,10.461,0.46,14.79-2.35c6.25-3.98,11.94-10.04,13.021-17.641c0.88-5.64-2.391-10.71-5.68-14.95
		c-9.311-11.68-20.601-21.56-30.971-32.25c0.48-1.09,1.37-1.89,2.2-2.71c9.021-8.87,17.79-18,26.909-26.76
		c9.98,9.96,19.73,20.2,30.371,29.47c3.959,3.28,8.209,6.98,13.58,7.35c8.27,0.03,15.529-5.33,20.319-11.7
		c4.229-5.65,5.261-13.78,1.421-19.88c-4.101-6.16-9.5-11.3-14.701-16.52c-6.59-6.7-13.25-13.34-19.81-20.07
		c6.771-7.47,15.75-13.52,19.78-23.07c2-7.95-0.59-17.48-7.66-22.15c-6.63-4.06-15.971-4.87-22.35,0.11
		c-6.67,4.87-11.9,11.37-17.91,16.98c-9.92-9.69-19.631-19.6-29.62-29.21c-3.47-2.77-6.761-6.32-11.36-7.02
		C273.359,130.32,269.34,129.81,265.84,131.46 M117.53,369.76c-3.72,2-6.67,5.13-9.91,7.79c-19.98,19.36-39.35,39.34-59.15,58.88
		c-0.04,0.351-0.1,1.051-0.13,1.4c2.53,5.439,5.27,10.92,9.35,15.4c4.22,4.77,9.99,7.76,15.68,10.409
		c1.04,0.341,2.12,1.261,3.28,0.86c8.65-8.64,17.29-17.3,25.93-25.95c13.57-13.77,27.64-27.08,40.4-41.609
		c2.1-4.29,1.52-9.24,1.36-13.851C141.21,372.47,128.02,364.79,117.53,369.76z"/>
</g>
</svg>
