<?xml version="1.0" encoding="utf-8"?>
<!-- Generator: Adobe Illustrator 16.0.0, SVG Export Plug-In . SVG Version: 6.00 Build 0)  -->
<!DOCTYPE svg PUBLIC "-//W3C//DTD SVG 1.1//EN" "http://www.w3.org/Graphics/SVG/1.1/DTD/svg11.dtd">
<svg version="1.1" id="Layer_1" xmlns="http://www.w3.org/2000/svg" xmlns:xlink="http://www.w3.org/1999/xlink" x="0px" y="0px"
	 width="512px" height="512px" viewBox="0 0 512 512" enable-background="new 0 0 512 512" xml:space="preserve">
<g id="_x23_000000ff">
	<path fill="#406D94" d="M210.97,5.04c40.89-7.22,83.6-4.6,123.12,8.27C392.95,31.8,442.96,74.69,472.73,128.44
		c19.39,34.54,30.859,73.28,34.77,112.63c2.18,23.89,2.48,48.22-2.42,71.81c-3.8,18.83-11.13,37.14-22.74,52.54
		c-17.67,23.55-45.25,39.03-74.21,43.39c0.44,0.12,1.33,0.36,1.78,0.48c-11.7,1.09-23.33,3.7-35.16,3.02
		c-0.13,16.811,0.359,33.631-0.529,50.421c-0.931,17.25-6.08,34.859-17.291,48.279c-57.63-0.029-115.26,0-172.89-0.01
		c-8.71-0.14-17.44,0.3-26.13-0.25c-3.88,0.14-5.24-4.01-7.04-6.66c-7.56-12.27-11.13-26.57-12.05-40.84
		c-1-16.96-0.58-33.96-0.68-50.93c-17.81,0.39-35.66-2.601-52.57-8.12c-25.33-8.2-47.99-25.28-61.49-48.391
		c-6.58-10.64-11.09-22.439-14.54-34.43c-6.25-23.94-6.05-48.97-4.63-73.48c4.04-55.86,23.84-111.08,59.1-154.88
		c17.59-21.76,38.64-40.78,62.47-55.5C152.27,21.53,181.1,10.45,210.97,5.04 M240.73,40.88c-30.02,1.86-59.54,10.63-85.99,24.91
		c-34.61,19.01-62.72,48.91-81.42,83.54C51.17,189.99,42.07,236.96,43.48,283c1.13,20.19,5.62,41.06,17.94,57.55
		c11.64,15.73,29.92,25.38,48.77,29.49c22.12,4.82,44.94,2.49,67.2,0.04c0.17,4.32-0.23,8.64-0.58,12.939
		c0.11,4.721,1.02,9.431,0.41,14.16c-0.65,4.91-0.28,9.87-0.39,14.811c1.38,18.31-0.24,36.76,2.01,55.02
		c1.08,7.37,3.21,15.04,8.88,20.25c5.02,4.84,13.18,3.87,18.72,0.48c5.55-3.12,8.69-8.98,10.55-14.851
		c4.43,4.63,7.81,10.48,13.56,13.69c3.63,2.15,8.32,2.49,12.11,0.53c5.77-2.891,9.19-8.601,12.8-13.66
		c0.34-0.09,1.01-0.28,1.351-0.37c4.06,4.6,7.119,10.47,12.67,13.65c4.379,2.729,10.199,2,14.359-0.811
		c5.35-3.57,8.59-9.27,12.45-14.229c0.771,6.84,5.7,12.17,11.021,16.06c4.719,3.59,11.64,3.42,16.549,0.31
		c5.561-3.89,7.91-10.649,9.371-16.989c1.67-5.98,1.27-12.221,2.049-18.33c0.421-27.561,0.281-55.12,0.25-82.681
		c9.48,0.811,18.891,2.44,28.421,2.58c21.021,0.95,42.81-1.279,61.859-10.79c11.311-5.68,21.351-14.119,28.21-24.83
		c10.37-16,14.23-35.25,15.45-54.02c0.17-11,0.41-22.05-0.88-32.98c-3.64-44.31-17.63-88.39-43.859-124.61
		c-17.711-24.84-41.051-45.72-67.91-60.24c-18.381-10.06-38.44-16.93-58.971-20.97C279.05,40.63,259.811,39.85,240.73,40.88z"/>
	<path fill="#406D94" d="M380.391,175.43c10.92,1.68,19.35,10.41,24,20c8.01,15.26,8.779,33.04,7.629,49.88
		c-0.72,12.85-5.359,25.4-13.01,35.74c-9.4,12.771-23.76,21.101-38.859,25.32c-12.36,3.76-25.351,4.51-38.18,4.75
		c-7.881-0.49-15.881-0.521-23.531-2.771c-9.709-2.39-15.899-11.91-18.039-21.149c-1.641-9.28-2.24-18.78-1.5-28.181
		c0.539-8.649,4.82-16.529,9.689-23.49c9.52-12.99,21.77-23.63,34.27-33.65c11.57-9.09,23.391-18.38,37.15-23.93
		C366.41,175.17,373.52,174.71,380.391,175.43z"/>
	<path fill="#406D94" d="M121.05,180.05c6.75-5.33,15.89-5.52,24.04-4.41c9.68,2.15,18.4,7.15,26.56,12.61
		c12.81,8.72,24.91,18.47,36.31,28.96c7.14,6.84,13.95,14.16,19.21,22.58c3.35,5.57,6.21,11.66,6.79,18.21
		c0.95,8.641,0.33,17.37-0.79,25.96c-1.21,8.67-5.67,17.3-13.14,22.13c-8.91,4.57-19.25,4.47-29.01,4.92
		c-17.25,0.07-34.89-2.109-50.73-9.31c-14.31-6.32-26.54-17.591-33.06-31.921c-5.47-10.699-6.96-22.909-6.57-34.789
		c-0.37-8.68,1.19-17.27,2.08-25.86c0.14,0.53,0.27,1.06,0.41,1.6C105.78,199.1,111.39,187.42,121.05,180.05z"/>
	<path fill="#406D94" d="M263.391,335.55c2.76-0.87,5.409,0.98,7.379,2.71c2.69,2.87,3.961,6.71,5.561,10.221
		c5.189,12.329,10,24.81,14.811,37.279c2.209,6.33,4.879,13.08,3.42,19.891c-1.49,3.239-4.761,6.26-8.57,5.949
		c-5.42-0.109-11.37,0.54-16.211-2.42c-5.76-3.91-10.27-9.59-12.75-16.1c-0.5,0.15-1.489,0.439-1.979,0.58
		c-4.61,8.37-11.9,16.57-21.97,17.62c-5.17-0.011-11.36-1.03-14.39-5.73c-2.4-4.54-0.48-9.75,0.72-14.35
		c4.28-13.38,10.58-26,15.67-39.08c2.14-4.96,3.69-10.521,7.8-14.29c1.62-1.85,4.4-1.8,6.59-1.16c3.36,1.71,5.41,5.07,6.62,8.53
		C258.13,341.75,259.45,337.33,263.391,335.55z"/>
</g>
</svg>
