<?xml version="1.0" encoding="utf-8"?>
<!-- Generator: Adobe Illustrator 16.0.0, SVG Export Plug-In . SVG Version: 6.00 Build 0)  -->
<!DOCTYPE svg PUBLIC "-//W3C//DTD SVG 1.1//EN" "http://www.w3.org/Graphics/SVG/1.1/DTD/svg11.dtd">
<svg version="1.1" id="Layer_1" xmlns="http://www.w3.org/2000/svg" xmlns:xlink="http://www.w3.org/1999/xlink" x="0px" y="0px"
	 width="1229px" height="160px" viewBox="0 0 1229 160" enable-background="new 0 0 1229 160" xml:space="preserve">
<path fill="#FFFFFF" d="M894.75,6.75c11.5,0,23,0,34.5,0c0,49.75,0,99.5,0,149.25c-11.5,0-23,0-34.5,0
	C894.75,106.25,894.75,56.5,894.75,6.75 M339.75,6.75c9.61-0.01,19.21,0.02,28.82-0.01c18.6,30.77,36.99,61.68,55.75,92.359
	c18.19-30.83,36.47-61.609,54.77-92.359c9.56,0.03,19.11,0,28.66,0.01c0.05,26.41-0.1,52.82,0.08,79.22
	c0.39,23.33,0.06,46.69,0.17,70.03c-10.83,0-21.66,0-32.5,0c0.18-29.63-0.35-59.25-0.26-88.89c-14.54,24.36-29.07,48.74-43.55,73.14
	c-5.3,0.02-10.61-0.03-15.91,0.03c-14.54-23.8-28.98-47.65-43.51-71.45c-0.04,29.05-0.01,58.11-0.02,87.17c-10.83,0-21.67,0-32.5,0
	C339.75,106.25,339.75,56.5,339.75,6.75 M210.75,6.75c11.5,0,23,0,34.5,0c0,40.33,0,80.67,0,121c25,0,50-0.01,75,0
	c0,9.5,0,19,0,28.5c-36.5,0-73,0-109.5,0C210.75,106.42,210.75,56.58,210.75,6.75 M140.75,6.75c11.5,0,23,0,34.5,0
	c0,49.75,0,99.5,0,149.25c-11.5,0-23,0-34.5,0C140.75,106.25,140.75,56.5,140.75,6.75 M4.75,6.75c37.67,0,75.34,0,113,0
	c0,9.25,0.01,18.5,0,27.75c-26.17,0.01-52.34-0.02-78.51,0.02c0.02,13.07,0,26.15,0.01,39.23c23.08,0,46.16,0,69.25,0
	c0.01,9.25,0,18.5,0,27.75c-23.08,0.01-46.17-0.01-69.25,0.01c0,18.16,0,36.32,0,54.49c-11.5,0-23,0-34.5,0
	C4.75,106.25,4.75,56.5,4.75,6.75 M947.75,6.5c42.08-0.02,84.15,0.02,126.23-0.01c11.92,0.47,23.859,0.21,35.789,0.22
	c13.36,21.91,26.351,44.05,39.74,65.94c13.26-21.95,26.44-43.94,39.641-65.91c11.439,0.02,22.88,0.02,34.319-0.01
	c-18.739,31.13-37.47,62.26-56.22,93.38c-0.83,1.54-2.24,2.96-2.01,4.83c0.02,17.02,0.01,34.04,0.01,51.06c-11.5,0-23,0-34.5,0
	c-0.05-17.63,0.09-35.26-0.07-52.87c-17.26-29.19-34.99-58.13-52.41-87.23c-0.039,6.37-0.01,12.73-0.02,19.1
	c-16,0.01-32-0.01-48,0.01c0.01,40.33,0,80.66,0,120.99c-11.5,0-23,0-34.5,0c0-40.33-0.01-80.66,0-120.99c-16-0.02-32,0-48-0.01
	C947.75,25.5,947.75,16,947.75,6.5 M758.03,20.9c15.25-11.74,34.8-17.26,53.92-16.66c22.479-0.22,45.53,8.71,60.09,26.22
	c-7.47,6.99-14.96,13.96-22.47,20.91c-7.37-8.57-17.49-14.93-28.721-16.81c-15.13-2.61-31.77,1.43-42.88,12.33
	c-18.25,18.04-18.239,51.08,0.101,69.05c11.39,11.14,28.58,15.069,43.979,12c10.84-2.04,20.38-8.45,27.49-16.73
	c7.57,6.72,14.86,13.76,22.43,20.49c-11.46,14.8-29.479,23.49-47.79,25.979c-17.93,2.34-36.81,0.41-53.12-7.76
	c-14.96-7.189-27.409-19.54-34.51-34.55c-7.3-15.19-8.91-32.71-6.069-49.2C733.67,48.35,743.6,31.85,758.03,20.9"/>
<path opacity="0.996" fill="#3F6C93" d="M670.57,112.39c0.05,6.25-0.011,12.5,0.04,18.75c6.22,0,12.439,0,18.67,0
	c0.029-6.25-0.011-12.5,0.029-18.75C683.06,112.35,676.81,112.35,670.57,112.39 M551.75,112.49c0.14,6.21,0.01,12.43,0.07,18.64
	c6.26-0.05,12.53,0.15,18.78-0.11c-0.08-6.21-0.04-12.42-0.01-18.63C564.3,112.42,558.02,112.23,551.75,112.49 M670.6,74.82
	c-0.029,6.25,0.011,12.5-0.029,18.74c6.239,0.051,12.489,0.04,18.729,0.011c-0.03-6.25,0.01-12.5-0.02-18.74
	C683.05,74.82,676.82,74.82,670.6,74.82 M551.82,74.83c-0.03,6.24,0.01,12.47-0.03,18.71c6.27,0.1,12.53,0.04,18.8,0.03
	c-0.11-6.271,0.11-12.53-0.12-18.8C564.25,74.88,558.03,74.79,551.82,74.83 M604.26,53.37c-1.67,0.83-2.66,2.75-2.44,4.59
	c0.02,15.71-0.05,31.42,0.03,47.13c-0.02,3.28,4.15,5.48,6.89,3.71C622.27,101,635.72,93.07,649.22,85.23
	c3.15-1.33,3.521-6.3,0.44-7.92c-13.19-7.85-26.521-15.46-39.74-23.27C608.25,52.96,606.09,52.21,604.26,53.37 M670.56,37.38
	c0.07,6.26,0,12.52,0.04,18.78c6.23,0.01,12.45,0,18.681,0c0.029-6.27-0.011-12.54,0.029-18.8
	C683.06,37.33,676.81,37.3,670.56,37.38 M551.76,37.44c0.11,6.24,0.01,12.48,0.06,18.71c6.23,0.02,12.47,0,18.7,0.02
	c0.1-6.27,0-12.54,0.07-18.82C564.31,37.38,558.03,37.21,551.76,37.44 M544.2,6.29c2.52-0.33,5.08-0.14,7.62-0.15
	c-0.04,4.1,0.06,8.21-0.1,12.31c6.28,0.34,12.58,0.07,18.87,0.13c-0.03-4.15-0.04-8.3-0.02-12.46c33.34,0.02,66.69-0.01,100.03,0.02
	c-0.02,4.15-0.01,8.29-0.029,12.44c6.239,0.03,12.489,0.04,18.739-0.01c-0.029-4.14-0.02-8.28-0.029-12.43
	c2.489,0.01,4.989-0.17,7.479,0.12c3.09,0.45,5.34,3.58,5,6.65c-0.02,45.73,0.03,91.46-0.029,137.18c0.079,3-2.61,5.92-5.66,5.83
	c-2.271,0.07-4.53,0-6.79-0.01c0-2.04,0-4.08,0.01-6.11c-6.24-0.01-12.47-0.01-18.69,0c-0.02,2.04-0.01,4.08,0,6.12
	c-33.34,0.021-66.689,0-100.03,0.01c-0.01-2.05-0.01-4.1-0.04-6.149c-6.24,0.029-12.48,0-18.71,0.02c-0.01,2.04-0.01,4.07,0,6.11
	c-2.78-0.05-5.58,0.25-8.33-0.18c-2.771-0.91-4.47-3.891-4.22-6.74c0.02-45.34,0.01-90.68,0.01-136.03
	C539.07,9.96,541.15,6.83,544.2,6.29"/>
</svg>
